<?xml version="1.0" encoding="utf-8"?>
<!-- Generator: Adobe Illustrator 18.1.0, SVG Export Plug-In . SVG Version: 6.00 Build 0)  -->
<!DOCTYPE svg PUBLIC "-//W3C//DTD SVG 1.1//EN" "http://www.w3.org/Graphics/SVG/1.1/DTD/svg11.dtd" [
	<!ENTITY ns_extend "http://ns.adobe.com/Extensibility/1.0/">
	<!ENTITY ns_ai "http://ns.adobe.com/AdobeIllustrator/10.0/">
	<!ENTITY ns_graphs "http://ns.adobe.com/Graphs/1.0/">
	<!ENTITY ns_vars "http://ns.adobe.com/Variables/1.0/">
	<!ENTITY ns_imrep "http://ns.adobe.com/ImageReplacement/1.0/">
	<!ENTITY ns_sfw "http://ns.adobe.com/SaveForWeb/1.0/">
	<!ENTITY ns_custom "http://ns.adobe.com/GenericCustomNamespace/1.0/">
	<!ENTITY ns_adobe_xpath "http://ns.adobe.com/XPath/1.0/">
]>
<svg version="1.1" id="Layer_1" xmlns:x="&ns_extend;" xmlns:i="&ns_ai;" xmlns:graph="&ns_graphs;"
	 xmlns="http://www.w3.org/2000/svg" xmlns:xlink="http://www.w3.org/1999/xlink" x="0px" y="0px" viewBox="0 0 200 100"
	 enable-background="new 0 0 200 100" xml:space="preserve">
<metadata>
	<sfw  xmlns="&ns_sfw;">
		<slices></slices>
		<sliceSourceBounds  height="61.9" width="195.3" bottomLeftOrigin="true" x="2.1" y="-79.3"></sliceSourceBounds>
	</sfw>
</metadata>
<g>
	<g>
		<path fill="#231F20" d="M20.8,27.2c2.4,17.2,4.7,34.3,7.2,51.4c0.2,1.2,2.1,0.7,1.9-0.5C27.4,61,25,43.8,22.7,26.7
			C22.5,25.4,20.6,26,20.8,27.2L20.8,27.2z"/>
	</g>
</g>
<g>
	<g>
		<path fill="#231F20" d="M3,28.8c15.8-2.1,30.8-5.5,46.2-9.4c1.2-0.3,0.7-2.2-0.5-1.9C33.5,21.5,18.6,24.8,3,26.9
			C1.8,27,1.7,29,3,28.8L3,28.8z"/>
	</g>
</g>
<g>
	<g>
		<path fill="#231F20" d="M53.3,61.7c-3.3-1.6-5.2-0.5-6.9,2.6c-1.1,2.1-2.6,6-0.4,7.9c4.1,3.5,11.1-7.4,6.9-11
			c-0.7-0.6-1.9,0-1.6,1c0.8,3.5,2.2,6.7,4.3,9.5c0.7,1,2.5,0,1.7-1c-2-2.7-3.4-5.7-4.1-9c-0.5,0.3-1.1,0.6-1.6,1
			c1.6,1.4,0.6,3.5-0.4,5c-0.3,0.6-0.7,1.1-1.2,1.6c-0.8,1-1,1.5-2.3,0.9c-1.1-0.6-1-0.8-0.7-1.9c0.2-0.8,0.4-1.5,0.7-2.2
			c0.9-2,2-3.6,4.5-2.5C53.5,63.9,54.5,62.2,53.3,61.7L53.3,61.7z"/>
	</g>
</g>
<g>
	<g>
		<path fill="#231F20" d="M66,56.1c0.4,4.5,0.5,10.1,2.8,14.1c0.6,1.1,2.3,0.1,1.7-1c-2.1-3.6-2.1-9-2.5-13.1
			C67.9,54.9,65.9,54.9,66,56.1L66,56.1z"/>
	</g>
</g>
<g>
	<g>
		<path fill="#231F20" d="M61.2,64.6c4.8-1.6,9.6-3.2,14.4-4.9c1.2-0.4,0.7-2.3-0.5-1.9c-4.8,1.6-9.6,3.2-14.4,4.9
			C59.5,63.1,60,65,61.2,64.6L61.2,64.6z"/>
	</g>
</g>
<g>
	<g>
		<path fill="#231F20" d="M83.4,59.4c-0.2,0.1-0.4,0.2-0.7,0.2c-0.9,0.3-1,1.6,0,1.9c1.8,0.5,3.2-1,4.4-2c1.7-1.5,3.1-3.1,3.7-5.3
			c0.1-0.5-0.2-1.1-0.7-1.2c-3.7-0.9-7.4,5.1-8.7,7.8c-0.1,0.3-0.2,0.7,0,1c2.9,4.1,9.6,2.5,13.8,2c1.2-0.2,1.3-2.1,0-2
			c-1.8,0.2-3.6,0.4-5.5,0.5c-1.6,0.1-4,0.3-5.5-0.6c-1.5-0.9,0.5-3,1.3-3.9c0.8-0.9,2.8-3.3,4.1-3c-0.2-0.4-0.5-0.8-0.7-1.2
			c-0.4,1.5-1.2,2.6-2.4,3.6c-0.6,0.6-2.4,2.6-3.4,2.3c0,0.6,0,1.3,0,1.9c0.2-0.1,0.4-0.2,0.7-0.2C85.1,60.8,84.6,58.9,83.4,59.4
			L83.4,59.4z"/>
	</g>
</g>
<g>
	<g>
		<path fill="#231F20" d="M122.2,33.1c1.2,12.6,2.6,25.2,4.2,37.7c0.2,1.2,2,1.3,2,0c0-0.4,0-0.8-0.1-1.2c-0.1-1.3-2-1.3-2,0
			c0,0.4,0,0.8,0.1,1.2c0.7,0,1.3,0,2,0c-1.6-12.6-3-25.1-4.2-37.7C124,31.9,122.1,31.9,122.2,33.1L122.2,33.1z"/>
	</g>
</g>
<g>
	<g>
		<path fill="#231F20" d="M99.9,36.6c15.7-1,31.4-2.2,47.1-3.7c1.2-0.1,1.3-2.1,0-2c-15.7,1.5-31.4,2.7-47.1,3.7
			C98.7,34.8,98.7,36.7,99.9,36.6L99.9,36.6z"/>
	</g>
</g>
<g>
	<g>
		<path fill="#231F20" d="M137,55.4c0.3,3.5,1,11,6.5,9c4.7-1.7,4.7-9,4.1-13c-0.2-1.2-2.1-0.7-1.9,0.5c0.4,2.8,0.5,7-1.4,9.3
			c-1,1.2-1.5,1.5-3,0.8c-1.3-0.6-1.6-1-1.9-2.3c-0.3-1.4-0.3-2.9-0.5-4.3C138.9,54.1,136.9,54.1,137,55.4L137,55.4z"/>
	</g>
</g>
<g>
	<g>
		<path fill="#231F20" d="M156,50.3c-3.6-2.5-4.3,5.8-3.8,7.7c0.5,1.6,1.7,3.1,3.3,3.7c2.2,0.8,3.6-0.6,5.5-1.4
			c1.2-0.5,0.2-2.2-1-1.7c-0.8,0.4-1.6,1.1-2.4,1.3c-1.3,0.4-2.5-0.5-3.2-1.6c-0.6-1-0.6-2.2-0.5-3.3c0-0.2,0.7-3.2,1-2.9
			C156,52.7,157,51,156,50.3L156,50.3z"/>
	</g>
</g>
<g>
	<g>
		<path fill="#231F20" d="M164.1,50C164.2,50,164.2,50,164.1,50c0.4-0.5,0.1-1.1-0.3-1.4c0,0-0.1,0-0.1-0.1c-0.5-0.3-1.3,0-1.4,0.6
			c-0.3,1.8,0.9,4.4,1.4,6.1c0.8,2.7,1.7,5.4,2.6,8.1c0.4,1.2,2.3,0.7,1.9-0.5c-0.8-2.2-1.5-4.4-2.2-6.7c-0.3-1-0.6-1.9-0.9-2.9
			c-0.2-0.8-1.2-2.7-1-3.6c-0.5,0.2-1,0.4-1.4,0.6c0,0,0.1,0,0.1,0.1c-0.1-0.4-0.2-0.9-0.4-1.3c0,0,0,0,0,0.1
			C161.7,50,163.4,51,164.1,50L164.1,50z"/>
	</g>
</g>
<g>
	<g>
		<path fill="#231F20" d="M165.6,56.4c0.6-1.6,1.5-3,2.5-4.4c0.4-0.6,0.9-1.2,1.3-1.7c0.3-0.4,0.5-0.7,0.7-1.1
			c0.1-0.2,0.2-0.3,0.3-0.5c0.2-0.3,0.2-0.3-0.2,0c-0.4-0.2-0.8-0.5-1.2-0.7c0,0,0,0.1,0,0.1c0.3-0.4,0.6-0.8,0.9-1.2
			c0,0-0.1,0-0.1,0c-1.2,0.1-1.3,2.1,0,2c0,0,0.1,0,0.1,0c0.7-0.1,1-0.6,0.9-1.2c0,0,0-0.1,0-0.1c-0.1-0.5-0.8-0.8-1.2-0.7
			c-0.6,0.2-0.8,0.6-1.1,1.1c-0.6,0.9-1.2,1.8-1.8,2.7c-1.2,1.7-2.3,3.3-3,5.3C163.3,57.1,165.2,57.6,165.6,56.4L165.6,56.4z"/>
	</g>
</g>
<g>
	<g>
		<path fill="#231F20" d="M164.4,55.9c-0.1,0.5,2.5,0.6,2.9,0.6c0.9,0.2,1.8,0.5,2.7,0.9c1.9,0.9,3.5,2.2,4.9,3.8
			c0.8,1,2.2-0.4,1.4-1.4c-2-2.4-4.7-4.2-7.7-5c-1.5-0.4-5.4-1.5-6,0.6C162.2,56.6,164.1,57.1,164.4,55.9L164.4,55.9z"/>
	</g>
</g>
<g>
	<g>
		<path fill="#231F20" d="M177.6,53.6c2.6,0.8,5.7-1.3,4.9-4.3c-0.9-3.3-4.5-1.7-5.8,0.2c-1.8,2.4-2.6,6.2,0,8.4
			c3.1,2.5,8.1,1,10.9-1.1c1-0.7,0-2.4-1-1.7c-2.2,1.6-6.8,3.4-8.9,0.7c-1.1-1.5-0.7-3.1,0.1-4.6c0.2-0.3,0.7-1.5,1.1-1.5
			c0.5,0.3,1.1,0.5,1.6,0.8c-0.6,1.1-1.4,1.5-2.4,1.1C176.9,51.3,176.4,53.2,177.6,53.6L177.6,53.6z"/>
	</g>
</g>
<g>
	<g>
		<path fill="#231F20" d="M187.5,47.9c1.2,4.4,2.3,8.9,3.5,13.3c0.3,1,2,0.9,1.9-0.3c-0.1-2-0.4-4-0.9-5.9c-0.3-1.1-0.7-2.2-0.9-3.3
			c-0.5-2.6-0.1-8.1,4.4-4.3c1,0.8,2.4-0.6,1.4-1.4c-2.3-1.9-5.8-2.5-7.7,0.4c-0.9,1.4-0.7,3.1-0.4,4.7c0.8,3.3,1.8,6.3,2,9.8
			c0.6-0.1,1.3-0.2,1.9-0.3c-1.2-4.4-2.3-8.9-3.5-13.3C189.1,46.1,187.2,46.6,187.5,47.9L187.5,47.9z"/>
	</g>
</g>
</svg>
