<?xml version="1.0" encoding="utf-8"?>
<!-- Generator: Adobe Illustrator 18.1.0, SVG Export Plug-In . SVG Version: 6.00 Build 0)  -->
<!DOCTYPE svg PUBLIC "-//W3C//DTD SVG 1.1//EN" "http://www.w3.org/Graphics/SVG/1.1/DTD/svg11.dtd" [
	<!ENTITY ns_extend "http://ns.adobe.com/Extensibility/1.0/">
	<!ENTITY ns_ai "http://ns.adobe.com/AdobeIllustrator/10.0/">
	<!ENTITY ns_graphs "http://ns.adobe.com/Graphs/1.0/">
	<!ENTITY ns_vars "http://ns.adobe.com/Variables/1.0/">
	<!ENTITY ns_imrep "http://ns.adobe.com/ImageReplacement/1.0/">
	<!ENTITY ns_sfw "http://ns.adobe.com/SaveForWeb/1.0/">
	<!ENTITY ns_custom "http://ns.adobe.com/GenericCustomNamespace/1.0/">
	<!ENTITY ns_adobe_xpath "http://ns.adobe.com/XPath/1.0/">
]>
<svg version="1.1" id="Layer_1" xmlns:x="&ns_extend;" xmlns:i="&ns_ai;" xmlns:graph="&ns_graphs;"
	 xmlns="http://www.w3.org/2000/svg" xmlns:xlink="http://www.w3.org/1999/xlink" x="0px" y="0px" viewBox="0 0 100 50"
	 enable-background="new 0 0 100 50" xml:space="preserve">
<metadata>
	<sfw  xmlns="&ns_sfw;">
		<slices></slices>
		<sliceSourceBounds  width="97.5" height="15.2" bottomLeftOrigin="true" y="-33.1" x="1.2"></sliceSourceBounds>
	</sfw>
</metadata>
<g>
	<g>
		<path fill="#231F20" d="M2.1,20.2c0,0,0.1-0.1,0.1-0.1c-0.3,0-0.6-0.1-0.9-0.1c0.5,3.2,1,6.3,2,9.4c0.1,0.4,0.8,0.5,0.9,0
			c0.3-2.3,0.7-4.7,1-7c-0.3,0-0.6,0-0.9,0c1,2.4,2,4.8,3.4,7.1c0.1,0.2,0.4,0.3,0.6,0.2C9.8,29,9.2,26.3,9.2,25
			c0-1.4-0.1-2.7-0.2-4.1c-0.1-0.9,0-2.1-0.5-2.9c-0.2-0.3-0.6-0.3-0.8,0c0,0,0,0.1-0.1,0.1c-0.2,0.2,0,0.5,0.2,0.6c0,0,0,0,0.1,0
			c0.5,0.4,1-0.5,0.5-0.8c0,0,0,0-0.1,0c0.1,0.2,0.1,0.4,0.2,0.6c0,0,0-0.1,0.1-0.1c-0.3,0-0.5,0-0.8,0c0.7,1.1,0.4,3.5,0.5,4.9
			c0,0.8,0.5,5-0.3,5.4C8.1,28.9,8.3,29,8.5,29c-1.3-2.2-2.3-4.5-3.3-6.9c-0.2-0.4-0.8-0.5-0.9,0c-0.3,2.3-0.7,4.7-1,7
			c0.3,0,0.6,0,0.9,0c-1-3.1-1.5-6.2-2-9.4c-0.1-0.4-0.7-0.4-0.9-0.1c0,0-0.1,0.1-0.1,0.1C0.9,20.2,1.8,20.7,2.1,20.2L2.1,20.2z"/>
	</g>
</g>
<g>
	<g>
		<path fill="#231F20" d="M10.9,20c-0.1-0.1-0.2-0.2-0.3-0.2c-0.3-0.2-0.9-0.1-0.8,0.3c0.3,2.9,0.6,5.9,0.9,8.8c0,0.6,1,0.6,0.9,0
			c-0.2-2.9-0.5-5.9-0.9-8.8c-0.3,0.1-0.5,0.2-0.8,0.3c0.1,0.1,0.2,0.2,0.3,0.2C10.7,21.1,11.4,20.4,10.9,20L10.9,20z"/>
	</g>
</g>
<g>
	<g>
		<path fill="#231F20" d="M10.4,24.7c0.8-1,1.7-1.5,2.9-1.8c-0.2-0.1-0.4-0.2-0.6-0.3c0.6,2.2,0.9,4.5,0.8,6.8c0,0.6,0.9,0.6,0.9,0
			c0-2.4-0.3-4.7-0.9-7c-0.1-0.3-0.3-0.4-0.6-0.3c-1.4,0.3-2.5,1-3.3,2C9.3,24.5,10,25.2,10.4,24.7L10.4,24.7z"/>
	</g>
</g>
<g>
	<g>
		<path fill="#231F20" d="M15.1,22.3c0.9-0.2,1.8-0.4,2.7-0.7c-0.2-0.2-0.4-0.3-0.6-0.5c0.3,2.4,0.5,4.9,0.5,7.3
			c0,0.6,0.9,0.6,0.9,0c0-2.4-0.2-4.9-0.5-7.3c0-0.3-0.3-0.6-0.6-0.5c-0.9,0.3-1.8,0.6-2.7,0.7C14.2,21.5,14.5,22.4,15.1,22.3
			L15.1,22.3z"/>
	</g>
</g>
<g>
	<g>
		<path fill="#231F20" d="M17.2,24.1c-0.4,0.2-0.9,0.4-1.3,0.5c-0.2,0.1-0.4,0.2-0.3,0.5c0,0.8,0.1,1.6,0.1,2.3c0,0.4,0,1,0.3,1.3
			c0.3,0.3,0.7,0.2,1.1,0.1c0.8-0.2,1.6-0.5,2.3-0.7c0.6-0.2,0.3-1.1-0.2-0.9c-0.4,0.1-0.9,0.3-1.3,0.4c-0.2,0.1-0.5,0.1-0.7,0.2
			c-0.1,0-0.2,0.1-0.3,0.1c-0.1,0.2-0.2,0.2-0.2,0c-0.2-0.3,0-1-0.1-1.3c0-0.5,0-1-0.1-1.5c-0.1,0.2-0.2,0.3-0.3,0.5
			c0.4-0.2,0.9-0.4,1.3-0.5C18,24.8,17.7,23.9,17.2,24.1L17.2,24.1z"/>
	</g>
</g>
<g>
	<g>
		<path fill="#231F20" d="M19.5,21c0,2.8,0.2,5.6,0.5,8.4c0.1,0.5,0.8,0.7,0.9,0.1c0.1-0.2,0.1-0.4,0.2-0.6c0.2-0.6-0.7-0.8-0.9-0.2
			c-0.1,0.2-0.1,0.4-0.2,0.6c0.3,0,0.6,0.1,0.9,0.1c-0.4-2.8-0.5-5.6-0.5-8.4C20.5,20.4,19.6,20.4,19.5,21L19.5,21z"/>
	</g>
</g>
<g>
	<g>
		<path fill="#231F20" d="M18.8,23.5C18.8,23.5,18.7,23.6,18.8,23.5c0.1-0.1,0.3-0.2,0.4-0.3c0,0,0,0-0.1,0c0.1,0.1,0.3,0.2,0.4,0.2
			c0,0,0,0,0-0.1c0,0.2,0,0.3,0,0.5c0.1-0.1,0.5-0.2,0.6-0.3c0.3-0.1,0.6-0.2,0.9-0.4c0.6-0.2,1.1-0.5,1.7-0.7
			c0.6-0.2,0.3-1.1-0.2-0.9c-0.8,0.3-1.5,0.6-2.3,0.9c-0.5,0.2-1.2,0.3-1.5,0.8c-0.1,0.1-0.1,0.3,0,0.5c0.1,0.2,0.3,0.3,0.5,0.3
			c0.2,0,0.4-0.2,0.5-0.3c0,0,0,0,0,0C19.9,23.2,19,23,18.8,23.5L18.8,23.5z"/>
	</g>
</g>
<g>
	<g>
		<path fill="#231F20" d="M22.7,20.5c-0.2,0.7,0.2,1.5,1,1.6c0.6,0.1,0.8-0.8,0.2-0.9c-0.2,0-0.4-0.2-0.3-0.4
			C23.7,20.2,22.8,19.9,22.7,20.5L22.7,20.5z"/>
	</g>
</g>
<g>
	<g>
		<path fill="#231F20" d="M25.5,23c-0.1-0.4-0.5-0.7-0.9-0.7c-0.5,0-0.8,0.5-1,0.9c-0.1,0.2-0.1,0.5,0.2,0.6
			c0.4,0.2,0.9,0.2,1.3,0.3c0.9,0.2,0,1-0.3,1.2c-0.5,0.4,0.2,1,0.7,0.7c0.6-0.5,1.3-1.3,0.9-2.1c-0.4-0.9-1.3-0.5-2-0.8
			c0.1,0.2,0.1,0.4,0.2,0.6c0-0.1,0.2-0.4,0.2-0.5C24.7,23.9,25.6,23.6,25.5,23L25.5,23z"/>
	</g>
</g>
<g>
	<g>
		<path fill="#231F20" d="M31.5,21.5C31.5,21.5,31.5,21.4,31.5,21.5c0,0.2,0,0.4,0,0.6c0,0,0,0,0.1-0.1c-0.2,0-0.5-0.1-0.7-0.1
			c0.6,0.8,0.6,2.8,0.8,3.8c0.2,1.2,0.5,2.5,0.7,3.7c0.1,0.5,0.9,0.4,0.9-0.1c0.1-1.6,0.1-3.2,0.2-4.9c-0.2,0.1-0.5,0.3-0.7,0.4
			c0.7,0.4,1.1,1.6,1.4,2.3c0.3,0.7,0.7,1.4,1,2.1c0.2,0.5,0.9,0.1,0.9-0.4c-0.2-1.5-0.5-3-0.8-4.4c-0.2-1-0.4-2.2-0.9-3.1
			c-0.3-0.5-1.1,0-0.8,0.5c0.6,1,0.7,2.4,1,3.5c0.3,1.3,0.5,2.6,0.7,3.8c0.3-0.1,0.6-0.2,0.9-0.4c-0.5-1-1-2.1-1.5-3.1
			c-0.3-0.7-0.6-1.2-1.2-1.6c-0.3-0.2-0.7,0-0.7,0.4c-0.1,1.6-0.1,3.2-0.2,4.9c0.3,0,0.6-0.1,0.9-0.1c-0.3-1.4-0.6-2.9-0.8-4.3
			C32.2,23.9,32.2,22.3,31.5,21.5c-0.1-0.3-0.4-0.3-0.6-0.1c0,0,0,0-0.1,0.1c-0.2,0.2-0.2,0.5,0,0.7c0,0,0,0,0,0
			C31.3,22.6,31.9,21.9,31.5,21.5L31.5,21.5z"/>
	</g>
</g>
<g>
	<g>
		<path fill="#231F20" d="M37.7,28.7c-0.3-1-0.6-2.1-0.7-3.2c0-0.2-0.1-0.5,0-0.7c0.1,0.1,0.2,0.2,0.2,0.3c0,0.2,0,0.5-0.1,0.7
			c-0.1,0.4-0.3,0.7-0.4,1.1c0,0.6,0.4,0.8,0.9,1c0.6,0.3,1,0.6,1.5,1c0.2,0.1,0.3,0.2,0.5,0.2c0.2,0,0.4-0.1,0.5-0.3
			c0-0.2,0-0.4-0.2-0.6c-0.2-0.2-0.5-0.2-0.7,0c0,0,0,0,0,0c-0.4,0.4,0.2,1.1,0.7,0.7c0,0,0,0,0,0c-0.2,0-0.4,0-0.7,0c0,0,0,0,0,0
			c0-0.2-0.1-0.3-0.1-0.5c0,0,0,0,0,0.1c0.2-0.1,0.3-0.2,0.5-0.3c-0.1,0-0.5-0.4-0.6-0.5c-0.3-0.2-0.6-0.3-0.8-0.5
			c-0.1,0-0.2-0.1-0.3-0.1c-0.3-0.1-0.3-0.2-0.1-0.4c0-0.3,0.2-0.6,0.2-1c0.1-0.8,0-1.8-0.9-2c-2.2-0.4-0.7,4.6-0.4,5.4
			C37,29.6,37.9,29.3,37.7,28.7L37.7,28.7z"/>
	</g>
</g>
<g>
	<g>
		<path fill="#231F20" d="M41.2,23.8c-0.2-0.2-0.3-0.3-0.6-0.3c-0.2-0.1-0.4,0-0.5,0.2c-0.6,1-0.8,2.1-0.5,3.3
			c0.2,0.8,0.7,1.9,1.6,2c1,0.1,1.6-1,1.7-1.8c0.2-1.3-0.4-2.6-1-3.7c-0.3-0.5-1.1-0.1-0.8,0.5c0.4,0.7,0.7,1.4,0.9,2.1
			c0.1,0.5,0,2.3-0.9,1.8c-0.5-0.3-0.7-1.4-0.7-1.9c0-0.7,0.1-1.3,0.5-1.9c-0.2,0.1-0.4,0.1-0.5,0.2c0.1,0,0.1,0.1,0.2,0.1
			C41,24.9,41.6,24.2,41.2,23.8L41.2,23.8z"/>
	</g>
</g>
<g>
	<g>
		<path fill="#231F20" d="M45,28c-0.3-1.7-0.6-3.4-0.9-5.1c-0.3,0.1-0.6,0.2-0.9,0.4c1.1,2.1,3,3.5,5.1,4.8c0.3,0.2,0.8-0.1,0.7-0.5
			c-0.8-2.7-1.4-5.8-2.7-8.4c-0.3-0.5-1.1-0.1-0.8,0.5c1.2,2.5,1.8,5.5,2.6,8.1c0.2-0.2,0.5-0.4,0.7-0.5c-1.9-1.2-3.7-2.4-4.7-4.4
			c-0.3-0.5-1-0.1-0.9,0.4c0.4,1.7,0.7,3.4,0.9,5.1C44.2,28.8,45.1,28.6,45,28L45,28z"/>
	</g>
</g>
<g>
	<g>
		<path fill="#231F20" d="M50.8,22.9C50.9,22.9,50.9,22.9,50.8,22.9c0.2-0.2,0.2-0.4,0.1-0.6c0,0,0-0.1-0.1-0.1
			c-0.1-0.2-0.3-0.3-0.5-0.2c-0.9,0.2-1.4,1.9-1.4,2.7c0,0.9,0.2,2.4,1.3,2.6c1.1,0.2,1.6-0.9,1.7-1.8c0.1-0.5,0.1-1.1-0.4-1.5
			c-0.3-0.3-0.7-0.3-1.1,0c-0.3,0.2-0.3,0.9,0.2,0.9c1-0.1,1.9-0.3,2.8-0.5c0.6-0.1,0.3-1-0.2-0.9c-0.9,0.2-1.7,0.4-2.6,0.5
			c0.1,0.3,0.2,0.6,0.2,0.9c0,0,0,1-0.1,1.1c-0.6,0.3-0.9,0.2-1-0.3c-0.1-0.2-0.1-0.4-0.1-0.6c0-0.5,0.2-1.9,0.7-2
			c-0.2-0.1-0.4-0.1-0.5-0.2c0,0,0,0.1,0.1,0.1c0-0.2,0-0.4,0.1-0.6c0,0,0,0-0.1,0.1C49.7,22.7,50.4,23.3,50.8,22.9L50.8,22.9z"/>
	</g>
</g>
<g>
	<g>
		<path fill="#231F20" d="M57.1,21.3c0.2-0.3,0.2-0.5,0.1-0.8c-0.2-0.4-1-0.4-0.9,0.1c0.3,2.4,1,4.7,2,6.9c0.2,0.4,0.8,0.3,0.9-0.1
			c0.3-1,0.5-2.1,0.8-3.1c-0.3,0.1-0.5,0.1-0.8,0.2c0.8,0.9,1.3,2.3,2.4,2.9c0.3,0.2,0.7-0.1,0.7-0.4c0.2-1.5,0.1-3.1-0.1-4.6
			c-0.1-1-0.1-2.6-0.9-3.3c-0.4-0.4-1.1,0.2-0.7,0.7c0.6,0.6,0.6,2.9,0.7,3.6c0.1,1.2,0.1,2.4,0,3.6c0.2-0.1,0.5-0.3,0.7-0.4
			c-0.9-0.5-1.5-2-2.2-2.8c-0.2-0.3-0.7-0.1-0.8,0.2c-0.3,1-0.5,2.1-0.8,3.1c0.3,0,0.6-0.1,0.9-0.1c-0.9-2.1-1.5-4.2-1.8-6.4
			c-0.3,0-0.6,0.1-0.9,0.1c0,0,0,0,0,0.1C56,21.4,56.8,21.9,57.1,21.3L57.1,21.3z"/>
	</g>
</g>
<g>
	<g>
		<path fill="#231F20" d="M62.8,22.4c0.1,0.9,0.3,1.7,0.4,2.6c0.1,0.7,0.1,1.6,0.4,2.2c0.1,0.1,0.2,0.2,0.4,0.2c0,0,0.1,0,0.1,0
			c0.6,0,0.6-1,0-0.9c0,0-0.1,0-0.1,0c0.1,0.1,0.3,0.2,0.4,0.2c-0.3-0.5-0.3-1.7-0.4-2.3c-0.1-0.8-0.2-1.5-0.3-2.3
			C63.6,21.5,62.7,21.8,62.8,22.4L62.8,22.4z"/>
	</g>
</g>
<g>
	<g>
		<path fill="#231F20" d="M65.5,22.5c0.2,1.1,0.4,2.1,0.6,3.2c0.1,0.6,0.1,1.6,0.7,1.9c0.5,0.3,1-0.5,0.5-0.8
			c-0.1-0.1-0.3-1.7-0.4-2.1c-0.2-0.8-0.3-1.6-0.5-2.5C66.3,21.7,65.4,21.9,65.5,22.5L65.5,22.5z"/>
	</g>
</g>
<g>
	<g>
		<path fill="#231F20" d="M65.2,22.7c1.1-0.4,2.1-0.6,3.2-0.8c0.6-0.1,0.3-1-0.2-0.9c-1.1,0.2-2.2,0.5-3.2,0.8
			C64.4,22,64.6,22.9,65.2,22.7L65.2,22.7z"/>
	</g>
</g>
<g>
	<g>
		<path fill="#231F20" d="M68.9,23.1c0.2,1.3,0.4,2.7,0.6,4c0.1,0.6,1,0.3,0.9-0.2c-0.2-1.3-0.4-2.7-0.6-4
			C69.7,22.3,68.8,22.5,68.9,23.1L68.9,23.1z"/>
	</g>
</g>
<g>
	<g>
		<path fill="#231F20" d="M68.6,25.3c1.2-0.1,2.4-0.2,3.6-0.3c0.6,0,0.6-1,0-0.9c-1.2,0.1-2.4,0.2-3.6,0.3
			C68,24.4,68,25.4,68.6,25.3L68.6,25.3z"/>
	</g>
</g>
<g>
	<g>
		<path fill="#231F20" d="M70.4,21.7c0.5,1.9,0.9,3.9,1.1,5.9c0.1,0.6,1,0.3,0.9-0.2c-0.3-2-0.7-3.9-1.1-5.9
			C71.1,20.9,70.2,21.1,70.4,21.7L70.4,21.7z"/>
	</g>
</g>
<g>
	<g>
		<path fill="#231F20" d="M76.6,26.8c1.1-1.6,0.7-4,0.8-5.8c-0.3,0-0.6,0.1-0.9,0.1c0.7,1.8,1.6,3.4,2.5,5.1
			c0.2,0.4,0.7,0.3,0.9-0.1c0.5-1.6,0.9-3.2,1.3-4.8c-0.3,0-0.6,0.1-0.9,0.1c1.1,2.1,2.2,4.2,3.3,6.2c0.3,0.5,1.1,0.1,0.8-0.5
			c-1.1-2.1-2.3-4.1-3.3-6.2c-0.2-0.4-0.8-0.3-0.9,0.1c-0.4,1.6-0.8,3.2-1.3,4.8c0.3,0,0.6-0.1,0.9-0.1c-0.9-1.6-1.8-3.2-2.4-4.8
			c-0.2-0.5-0.9-0.4-0.9,0.1c-0.1,1.6,0.3,4-0.6,5.3C75.4,26.9,76.3,27.3,76.6,26.8L76.6,26.8z"/>
	</g>
</g>
<g>
	<g>
		<path fill="#231F20" d="M84.1,24.4c1.5-0.4,2.9-0.8,4.4-1.1c0.6-0.2,0.3-1.1-0.2-0.9c-1.5,0.4-2.9,0.8-4.4,1.1
			C83.2,23.7,83.5,24.6,84.1,24.4L84.1,24.4z"/>
	</g>
</g>
<g>
	<g>
		<path fill="#231F20" d="M84,24.5c0.3-0.2,1.8,2.4,1.9,2.7c0.1,0.2,0.4,0.3,0.6,0.2c1.7-0.8,3.4-1.5,5.1-2.3
			c0.5-0.3,0.1-1.1-0.5-0.8c-1.7,0.8-3.4,1.5-5.1,2.3c0.2,0.1,0.4,0.1,0.6,0.2c-0.4-0.8-2-3.8-3.2-3C83,24.1,83.5,24.9,84,24.5
			L84,24.5z"/>
	</g>
</g>
<g>
	<g>
		<path fill="#231F20" d="M84.5,23.6c-0.4-0.8-0.6-1.7-0.8-2.6c-0.1,0.2-0.2,0.4-0.3,0.6c1-0.2,1.9-0.4,2.9-0.6
			c0.6-0.1,0.3-1-0.2-0.9c-1,0.2-1.9,0.4-2.9,0.6c-0.3,0.1-0.4,0.3-0.3,0.6c0.2,0.9,0.4,1.7,0.8,2.6C83.8,24.4,84.7,24.2,84.5,23.6
			L84.5,23.6z"/>
	</g>
</g>
<g>
	<g>
		<path fill="#231F20" d="M94.4,20.5C94.4,20.5,94.5,20.5,94.4,20.5c0,0.2-0.2,0.4-0.3,0.6c0.5-0.2,1.1-0.3,1.7-0.3
			c1.8,0.4,2.2,1.4,1,3c-0.6,0.1-1.6-0.2-2.2-0.2c-0.3,0-0.5,0.2-0.5,0.5c0,2.1-0.2,4.2-0.5,6.3c0.3,0,0.6-0.1,0.9-0.1
			c0-0.1,0-0.2-0.1-0.3c-0.1-0.6-1.1-0.3-0.9,0.2c0,0.1,0,0.2,0.1,0.3c0.1,0.6,0.9,0.4,0.9-0.1c0.3-2.1,0.4-4.2,0.5-6.3
			c-0.2,0.2-0.3,0.3-0.5,0.5c1.6-0.1,4.4,0.8,4-1.9c-0.4-2.6-2.6-2.9-4.8-2.4c-0.3,0.1-0.4,0.3-0.3,0.6c0.1,0.4,0.2,0.5,0.6,0.6
			C94.7,21.6,95,20.7,94.4,20.5L94.4,20.5z"/>
	</g>
</g>
<g>
	<g>
		<path fill="#231F20" d="M93.6,32c-0.4,0-0.6,0.3-0.6,0.7c0,0.6,0.9,0.6,0.9,0c0,0,0-0.1,0-0.1c0,0.1-0.1,0.2-0.1,0.3
			c0,0,0.1-0.1,0.1-0.1c-0.1,0-0.2,0.1-0.3,0.1c0,0,0.1,0,0.1,0C94.2,32.9,94.2,32,93.6,32L93.6,32z"/>
	</g>
</g>
</svg>
