<?xml version="1.0" encoding="UTF-8" standalone="no"?>
<svg
   xmlns:dc="http://purl.org/dc/elements/1.1/"
   xmlns:cc="http://creativecommons.org/ns#"
   xmlns:rdf="http://www.w3.org/1999/02/22-rdf-syntax-ns#"
   xmlns:svg="http://www.w3.org/2000/svg"
   xmlns="http://www.w3.org/2000/svg"
   viewBox="0 0 1066.6667 266.66666"
   height="266.66666"
   width="1066.6667"
   xml:space="preserve"
   id="svg2"
   version="1.1"><metadata
     id="metadata8"><rdf:RDF><cc:Work
         rdf:about=""><dc:format>image/svg+xml</dc:format><dc:type
           rdf:resource="http://purl.org/dc/dcmitype/StillImage" /></cc:Work></rdf:RDF></metadata><defs
     id="defs6"><clipPath
       id="clipPath18"
       clipPathUnits="userSpaceOnUse"><path
         id="path16"
         d="M 0,200 H 800 V 0 H 0 Z" /></clipPath></defs><g
     transform="matrix(1.3333333,0,0,-1.3333333,0,266.66667)"
     id="g10"><g
       id="g12"><g
         clip-path="url(#clipPath18)"
         id="g14"><g
           transform="translate(33.9931,187.4619)"
           id="g20"><path
             id="path22"
             style="fill:#231f20;fill-opacity:1;fill-rule:nonzero;stroke:none"
             d="m 0,0 c -1.767,-21.704 -0.347,-43.645 0.642,-65.347 0.188,-4.12 3.237,-4.123 3.055,0.075 -0.461,10.612 -1.148,21.213 -1.583,31.828 -0.217,5.308 -0.394,10.618 -0.532,15.929 -0.13,5.027 -1.92,14.288 2.386,17.773 3.333,2.697 8.11,2.434 11.577,0.178 5.458,-3.553 6.504,-9.912 2.966,-15.221 -4.179,-6.269 -10.712,-10.476 -14.584,-17.017 -1.067,-1.802 -1.303,-5.046 -0.219,-6.909 4.815,-8.27 12.39,-13.158 19.804,-18.869 3.863,-2.976 7.63,-6.332 10.154,-10.558 1.945,-3.255 1.477,-7.945 4.433,-10.416 0.352,-0.205 0.699,-0.197 1.04,0.025 1.587,1.213 1.757,3.194 1.664,5.081 -0.052,1.048 -0.332,4.345 -1.996,4.283 -0.101,-0.004 -0.201,-0.007 -0.302,-0.011 -2.493,-0.093 -2.391,-7.815 -0.29,-8.419 0.099,-0.029 0.198,-0.058 0.298,-0.086 -0.484,1.764 -0.967,3.528 -1.451,5.293 -0.015,-0.161 -0.03,-0.322 -0.046,-0.483 0.424,1.037 0.847,2.075 1.27,3.113 -0.133,-0.05 -0.266,-0.1 -0.4,-0.15 0.507,-0.139 1.013,-0.277 1.52,-0.415 1.032,-1.402 0.23,-0.403 -0.054,0.997 -0.183,0.902 -0.409,1.787 -0.684,2.664 -0.61,1.948 -1.442,3.779 -2.47,5.539 -2.156,3.692 -5.109,6.765 -8.32,9.554 -7.529,6.54 -16.713,11.02 -22.015,19.815 0.062,-2.529 0.124,-5.058 0.186,-7.587 5.395,9.453 16.174,15.013 18.096,26.439 C 25.758,-3.311 20.633,11.578 8.6,10.553 -4.843,9.407 -2.293,-8.436 -2.027,-17.603 -1.556,-33.827 -0.905,-50.122 0.72,-66.276 l 2.899,1.932 C 1.246,-43.087 1.816,-21.809 1.674,-0.474 1.662,1.199 0.185,2.276 0,0" /></g><g
           transform="translate(88.5964,145.755)"
           id="g24"><path
             id="path26"
             style="fill:#231f20;fill-opacity:1;fill-rule:nonzero;stroke:none"
             d="m 0,0 c 0.328,2.673 -0.853,5.944 -3.75,6.681 -4.466,1.137 -7.381,-4.734 -8.58,-8.037 -2.665,-7.34 -1.182,-21.225 9.071,-21.56 10.964,-0.359 10.545,16.684 9.35,23.839 -0.538,3.22 -2.253,9.123 -5.996,10.009 -4.635,1.096 -5.093,-6.022 -5.182,-8.95 -0.084,-2.799 2.895,-7.117 3.871,-2.272 0.432,2.148 2.743,0.888 3.496,-0.406 0.906,-1.557 0.675,-4.063 0.654,-5.836 -0.054,-4.478 -1.581,-9.218 -6.988,-8.59 -5.662,0.657 -7.172,6.621 -4.787,11.274 0.943,1.841 2.04,3.438 4.055,4.19 0.899,0.336 3.774,0.99 4.266,-0.512 C -0.349,-0.689 -0.05,-0.41 0,0" /></g><g
           transform="translate(103.821,140.259)"
           id="g28"><path
             id="path30"
             style="fill:#231f20;fill-opacity:1;fill-rule:nonzero;stroke:none"
             d="M 0,0 C 0.358,0 0.343,1.187 -0.029,1.187 -0.387,1.187 -0.372,0 0,0" /></g><g
           transform="translate(103.0373,123.565)"
           id="g32"><path
             id="path34"
             style="fill:#231f20;fill-opacity:1;fill-rule:nonzero;stroke:none"
             d="m 0,0 c 4.847,6.723 7.355,15.57 9.558,23.472 2.455,8.804 3.923,17.844 4.58,26.955 0.062,0.864 0.029,5.513 -1.895,5.264 C 4.088,54.637 3.347,45.257 3.22,38.699 3.044,29.571 1.686,19.347 3.478,10.351 4.595,4.741 9.944,-2.709 16.261,1.807 c 2.547,1.821 3.893,5.208 5.096,7.966 2.064,4.731 3.741,9.635 5.115,14.609 1.229,4.445 2.131,8.973 2.796,13.535 0.572,3.924 1.505,8.413 0.319,12.311 -2.722,8.947 -8.023,-2.65 -8.982,-6.483 -2.092,-8.356 -1.055,-17.337 -0.326,-25.799 0.529,-6.14 0.766,-16.32 8.778,-17.371 4.493,-0.59 8.345,2.231 11.666,4.847 3.939,3.102 8.054,5.736 12.747,7.563 9.887,3.85 21.091,3.992 31.234,1.046 2.918,-0.848 3.148,7.524 0.802,8.399 C 73.188,27.027 59.555,26.049 47.894,19.93 42.489,17.094 36.587,9.486 30.174,9.56 c -5.852,0.066 -5.681,5.557 -6.059,9.925 -0.352,4.066 -0.687,8.163 -0.719,12.245 -0.034,4.266 0.693,7.409 2.29,11.294 0.381,0.925 1.042,4.633 0.214,0.8 C 25.402,41.522 25.305,39.085 24.874,36.759 23.405,28.826 21.159,20.508 17.412,13.319 15.705,10.043 12.595,7.409 8.996,10.174 5.543,12.827 6.687,19.159 6.739,22.94 L 6.906,35.061 C 6.97,39.764 6.36,46.364 12.449,47.306 11.817,49.06 11.185,50.815 10.553,52.57 10.05,44.327 8.854,36.187 6.786,28.187 4.65,19.926 1.12,12.295 -1.543,4.233 -1.806,3.437 -1.429,-1.982 0,0" /></g><g
           transform="translate(195.0893,138.5955)"
           id="g36"><path
             id="path38"
             style="fill:#231f20;fill-opacity:1;fill-rule:nonzero;stroke:none"
             d="m 0,0 c 0.033,0.843 0.066,1.686 0.099,2.529 -0.283,0.583 -0.804,0.944 -1.282,0.345 -1.649,-2.069 -0.671,-6.222 -0.611,-8.584 0.132,-5.24 0.344,-10.48 0.656,-15.713 0.603,-10.127 1.624,-20.222 2.837,-30.293 0.096,-0.797 1.142,-3.809 2.327,-2.064 4.446,6.547 7.829,13.723 10.427,21.187 -1.016,0.581 -2.032,1.162 -3.048,1.743 1.827,-9.79 4.273,-19.193 11.466,-26.444 1.314,-1.325 2.104,0.356 2.469,1.568 3.194,10.591 2.016,21.55 2.731,32.426 0.357,5.434 1.278,10.891 3.914,15.721 2.666,4.885 6.462,7.412 10.909,10.46 1.68,1.151 1.99,9.344 -0.739,8.823 -9.852,-1.88 -15.301,-14.313 -17.012,-23.04 -2.609,-13.306 -0.029,-26.997 -3.071,-40.232 0.674,0.66 1.348,1.32 2.022,1.979 -6.188,5.009 -7.765,13.659 -9.277,21.013 -0.273,1.331 -2.046,4.832 -3.048,1.743 -2.386,-7.346 -5.594,-14.176 -9.456,-20.86 l 2.326,-2.064 C 3.154,-38.696 2.101,-27.583 1.376,-16.447 1.034,-11.213 0.936,-5.966 0.611,-0.733 0.6,-0.558 0.701,1.09 0.446,1.344 0.166,1.622 -0.369,0.997 -0.272,0.397 -0.236,0.175 -0.146,0.122 0,0" /></g><g
           transform="translate(235.4796,85.676)"
           id="g40"><path
             id="path42"
             style="fill:#231f20;fill-opacity:1;fill-rule:nonzero;stroke:none"
             d="m 0,0 c 2.158,2.629 1.511,8.146 1.723,11.354 0.354,5.385 0.557,10.77 0.676,16.166 0.108,4.883 -3.653,4.842 -3.6,-0.089 0.058,-5.406 0.082,-10.815 0.062,-16.222 C -1.152,7.643 -1.905,3.477 -0.466,0.125 -0.37,-0.097 -0.171,-0.208 0,0" /></g><g
           transform="translate(249.8771,86.9148)"
           id="g44"><path
             id="path46"
             style="fill:#231f20;fill-opacity:1;fill-rule:nonzero;stroke:none"
             d="m 0,0 c 0.344,13.194 3.337,26.501 0.79,39.631 -0.527,2.712 -2.518,4.57 -3.56,0.971 -0.472,-1.628 -0.701,-2.974 -0.96,-4.651 -0.144,-0.931 1.082,-6.671 2.508,-4.175 0.744,1.304 1.118,2.081 1.62,3.534 -1.02,0.274 -2.039,0.548 -3.059,0.822 C 0.087,24.018 -3.846,11.4 -1.126,-0.738 -0.786,-2.255 -0.019,-0.745 0,0" /></g><g
           transform="translate(242.1914,95.3188)"
           id="g48"><path
             id="path50"
             style="fill:#231f20;fill-opacity:1;fill-rule:nonzero;stroke:none"
             d="m 0,0 c 3.407,4.493 10.777,4.829 15.767,5.995 2.237,0.523 2.203,7.423 -0.184,7.498 C 9.596,13.681 0.7,10.439 -1.634,4.485 -1.995,3.565 -1.537,-2.027 0,0" /></g><g
           transform="translate(261.9215,121.2399)"
           id="g52"><path
             id="path54"
             style="fill:#231f20;fill-opacity:1;fill-rule:nonzero;stroke:none"
             d="m 0,0 c 0.016,0.158 0.032,0.317 0.048,0.475 -0.385,0.825 -0.769,1.649 -1.153,2.474 -0.854,-11.844 -0.89,-23.887 2.456,-35.373 0.365,-1.252 1.45,-2.226 2.154,-0.579 1.602,3.753 6.391,12.408 11.376,11.118 5.2,-1.346 8.344,-8.683 10.092,-13.104 1.403,-3.547 2.584,3.044 2.295,4.299 -1.251,5.416 -6.476,15.696 -12.875,16.49 -6.418,0.796 -11.798,-10.19 -13.119,-15.076 0.783,0.019 1.567,0.038 2.351,0.057 C 0.318,-18.858 0.683,-8.279 0.651,2.451 0.64,6.32 -2.422,2.905 -0.641,0.663 -0.661,0.508 -0.682,0.354 -0.702,0.199 -0.691,-0.509 -0.112,-0.947 0,0" /></g><g
           transform="translate(231.0727,119.9145)"
           id="g56"><path
             id="path58"
             style="fill:#231f20;fill-opacity:1;fill-rule:nonzero;stroke:none"
             d="M 0,0 C 1.115,-0.972 1.864,-3.268 0.365,-4.285 0.514,-4.418 0.664,-4.551 0.814,-4.684 0.713,-4.26 0.297,-3.33 0.52,-2.921 c 0.085,0.157 0.174,0.181 0.234,0.246 0.074,-0.012 0.139,-0.045 0.194,-0.098 0.706,-0.529 0.757,0.228 0.154,2.271 l 0.674,0.22 C 1.765,-0.278 1.123,0.074 1.162,0.08 1.441,0.117 0.658,-1.761 1.261,-1.024 L 0.374,-1.046 c 0.216,0.663 0.208,0.769 -0.026,0.318 L 1.442,-1.022 C 0.99,-0.239 0.692,0.52 0.563,1.416 0.275,0.475 -0.012,-0.467 -0.3,-1.408 0.09,-1.428 0.418,-1.528 0.727,-1.78 1.681,-2.556 0.312,-2.401 1.013,-0.92 0.584,-1.827 0.639,-3.257 1.092,-4.145 1.51,-4.964 2.112,-4.931 2.5,-4.111 3.566,-1.857 2.947,3.212 -0.408,3.018 -1.417,2.96 -1.383,0.769 -1.271,0.194 -0.983,-1.291 -0.531,-2.654 0.245,-3.957 0.488,-4.364 0.957,-4.847 1.34,-4.252 2.603,-2.286 2.557,0.558 1.176,2.454 0.909,2.821 0.545,2.757 0.288,2.433 -1.054,0.738 -0.914,-3.315 1.403,-4.186 1.675,-4.289 1.909,-4.228 2.077,-3.966 2.802,-2.833 2.838,-1.182 2.269,0.035 1.887,0.85 0.932,1.66 0.044,1.003 -1.408,-0.071 -1.522,-5.257 0.407,-6.003 0.523,-6.048 0.635,-6.022 0.704,-5.906 2.039,-3.672 2.374,-0.659 0.11,1.148 -0.152,1.357 -0.27,0.235 0,0" /></g><g
           transform="translate(276.7591,100.8744)"
           id="g60"><path
             id="path62"
             style="fill:#231f20;fill-opacity:1;fill-rule:nonzero;stroke:none"
             d="m 0,0 c 10.29,3.255 11.659,-13.737 11.388,-19.753 -0.092,-2.035 1.587,-4.477 2.03,-1.213 0.855,6.311 -0.101,14.22 -3.666,19.67 C 8.161,1.136 -0.08,6.883 -0.325,0.902 -0.329,0.806 -0.315,-0.1 0,0" /></g><g
           transform="translate(352.1305,57.1147)"
           id="g64"><path
             id="path66"
             style="fill:#3f3b3c;fill-opacity:1;fill-rule:nonzero;stroke:none"
             d="M 0,0 C 0.005,-0.068 0.332,0.194 0.398,0.231 0.265,0.256 -0.087,-0.066 0,0" /></g><g
           transform="translate(350.7967,57.3181)"
           id="g68"><path
             id="path70"
             style="fill:#3f3b3c;fill-opacity:1;fill-rule:nonzero;stroke:none"
             d="M 0,0 0.146,0.09 -0.272,-0.052 Z" /></g><g
           transform="translate(350.2524,58.0326)"
           id="g72"><path
             id="path74"
             style="fill:#3f3b3c;fill-opacity:1;fill-rule:nonzero;stroke:none"
             d="m 0,0 c -0.506,-0.512 0.291,-0.184 0.191,-0.468 l -0.112,-0.12 0.499,0.294 C 0.384,-0.194 -0.071,-0.232 0,0" /></g><g
           transform="translate(351.1297,59.3967)"
           id="g76"><path
             id="path78"
             style="fill:#3f3b3c;fill-opacity:1;fill-rule:nonzero;stroke:none"
             d="m 0,0 c -0.193,-0.203 -0.255,-0.067 0.01,-0.148 0.017,0.027 0.027,0.042 0.04,0.061 C 0.033,-0.073 0.016,-0.051 0,0" /></g><g
           transform="translate(351.1797,59.3101)"
           id="g80"><path
             id="path82"
             style="fill:#3f3b3c;fill-opacity:1;fill-rule:nonzero;stroke:none"
             d="M 0,0 C 0.08,-0.066 0.137,0.2 0,0" /></g><g
           transform="translate(350.7538,59.5691)"
           id="g84"><path
             id="path86"
             style="fill:#3f3b3c;fill-opacity:1;fill-rule:nonzero;stroke:none"
             d="M 0,0 0.279,0.058 C 0.385,0.186 0.331,0.303 0.452,0.346 0.255,0.366 0.152,0.236 0,0" /></g><g
           transform="translate(350.2758,59.3243)"
           id="g88"><path
             id="path90"
             style="fill:#3f3b3c;fill-opacity:1;fill-rule:nonzero;stroke:none"
             d="M 0,0 0.125,0.017 C 0.169,0.071 0.175,0.101 0,0" /></g><g
           transform="translate(350.666,59.3742)"
           id="g92"><path
             id="path94"
             style="fill:#3f3b3c;fill-opacity:1;fill-rule:nonzero;stroke:none"
             d="M 0,0 -0.265,-0.033 C -0.34,-0.123 -0.514,-0.275 -0.16,-0.032 -0.328,-0.161 -0.156,-0.05 0,0" /></g><g
           transform="translate(350.6375,59.2404)"
           id="g96"><path
             id="path98"
             style="fill:#3f3b3c;fill-opacity:1;fill-rule:nonzero;stroke:none"
             d="M 0,0 C -0.071,-0.158 -0.087,-0.292 -0.358,-0.351 -0.126,-0.479 0.238,-0.131 0,0" /></g><g
           transform="translate(349.6484,57.606)"
           id="g100"><path
             id="path102"
             style="fill:#3f3b3c;fill-opacity:1;fill-rule:nonzero;stroke:none"
             d="m 0,0 -0.107,-0.202 0.236,0.087 C 0.012,-0.158 0.172,0.145 0,0" /></g><g
           transform="translate(350.4519,60.459)"
           id="g104"><path
             id="path106"
             style="fill:#3f3b3c;fill-opacity:1;fill-rule:nonzero;stroke:none"
             d="m 0,0 c -0.117,-0.097 -0.263,-0.311 -0.399,-0.45 l 0.198,0.043 C -0.16,-0.298 -0.159,-0.159 0,0" /></g><g
           transform="translate(350.0529,60.0087)"
           id="g108"><path
             id="path110"
             style="fill:#3f3b3c;fill-opacity:1;fill-rule:nonzero;stroke:none"
             d="M 0,0 -0.294,-0.068 C -0.225,-0.187 -0.117,-0.12 0,0" /></g><g
           transform="translate(349.663,58.8211)"
           id="g112"><path
             id="path114"
             style="fill:#3f3b3c;fill-opacity:1;fill-rule:nonzero;stroke:none"
             d="M 0,0 0.57,0.18 -0.035,0.029 Z" /></g><g
           transform="translate(350.0456,60.9091)"
           id="g116"><path
             id="path118"
             style="fill:#3f3b3c;fill-opacity:1;fill-rule:nonzero;stroke:none"
             d="M 0,0 0.316,0.182 -0.178,-0.077 Z" /></g><g
           transform="translate(349.7091,61.1523)"
           id="g120"><path
             id="path122"
             style="fill:#3f3b3c;fill-opacity:1;fill-rule:nonzero;stroke:none"
             d="M 0,0 C 0.251,0.162 0.272,0.423 0.448,0.501 0.33,0.544 0.088,0.43 -0.133,0.324 0.025,0.354 0.075,0.26 0,0" /></g><g
           transform="translate(349.2455,61.3328)"
           id="g124"><path
             id="path126"
             style="fill:#3f3b3c;fill-opacity:1;fill-rule:nonzero;stroke:none"
             d="M 0,0 C 0.081,0.021 0.201,0.081 0.331,0.144 0.248,0.128 0.146,0.089 0,0" /></g><g
           transform="translate(349.6369,60.1798)"
           id="g128"><path
             id="path130"
             style="fill:#3f3b3c;fill-opacity:1;fill-rule:nonzero;stroke:none"
             d="M 0,0 C 0.057,0.072 0.217,0.256 0.226,0.39 L -0.036,0.048 Z" /></g><g
           transform="translate(349.5923,60.2164)"
           id="g132"><path
             id="path134"
             style="fill:#3f3b3c;fill-opacity:1;fill-rule:nonzero;stroke:none"
             d="M 0,0 0.008,0.011 C -0.029,0.065 -0.056,0.104 -0.068,0.12 -0.059,0.105 -0.039,0.069 0,0" /></g><g
           transform="translate(349.6458,60.1676)"
           id="g136"><path
             id="path138"
             style="fill:#3f3b3c;fill-opacity:1;fill-rule:nonzero;stroke:none"
             d="M 0,0 -0.009,0.012 C -0.035,-0.021 -0.043,-0.033 0,0" /></g><g
           transform="translate(349.7046,59.36)"
           id="g140"><path
             id="path142"
             style="fill:#3f3b3c;fill-opacity:1;fill-rule:nonzero;stroke:none"
             d="M 0,0 C -0.236,-0.096 -0.543,-0.144 -0.697,-0.512 -0.44,-0.359 -0.353,-0.147 0,0" /></g><g
           transform="translate(349.3113,59.7438)"
           id="g144"><path
             id="path146"
             style="fill:#3f3b3c;fill-opacity:1;fill-rule:nonzero;stroke:none"
             d="m 0,0 0.036,-0.181 c 0.08,0.08 0.18,0.214 0.296,0.264 z" /></g><g
           transform="translate(349.1615,59.7048)"
           id="g148"><path
             id="path150"
             style="fill:#3f3b3c;fill-opacity:1;fill-rule:nonzero;stroke:none"
             d="M 0,0 0.15,0.039 0.136,0.106 Z" /></g><g
           transform="translate(349.1941,60.8408)"
           id="g152"><path
             id="path154"
             style="fill:#3f3b3c;fill-opacity:1;fill-rule:nonzero;stroke:none"
             d="m 0,0 c -0.179,-0.086 -0.25,-0.046 -0.337,-0.008 0.014,-0.126 0.06,-0.223 0.124,-0.287 C -0.112,-0.206 0.083,-0.06 0,0" /></g><g
           transform="translate(349.3636,60.5098)"
           id="g156"><path
             id="path158"
             style="fill:#3f3b3c;fill-opacity:1;fill-rule:nonzero;stroke:none"
             d="M 0,0 -0.028,-0.006 C -0.047,-0.039 -0.049,-0.053 0,0" /></g><g
           transform="translate(348.1795,61.4116)"
           id="g160"><path
             id="path162"
             style="fill:#3f3b3c;fill-opacity:1;fill-rule:nonzero;stroke:none"
             d="m 0,0 c -0.011,-0.021 -0.025,-0.047 -0.037,-0.07 l 0.049,0.056 z" /></g><g
           transform="translate(348.9378,60.4771)"
           id="g164"><path
             id="path166"
             style="fill:#3f3b3c;fill-opacity:1;fill-rule:nonzero;stroke:none"
             d="M 0,0 C -0.007,-0.108 0.094,-0.061 0.214,0.006 0.147,0.011 0.088,0.03 0.044,0.069 -0.002,0.029 -0.03,0 0,0" /></g><g
           transform="translate(348.9222,61.3526)"
           id="g168"><path
             id="path170"
             style="fill:#3f3b3c;fill-opacity:1;fill-rule:nonzero;stroke:none"
             d="M 0,0 C -0.03,-0.093 -0.047,-0.179 -0.059,-0.261 0.003,-0.135 0.083,0.075 0,0" /></g><g
           transform="translate(349.4006,60.6047)"
           id="g172"><path
             id="path174"
             style="fill:#3f3b3c;fill-opacity:1;fill-rule:nonzero;stroke:none"
             d="M 0,0 0.021,0.006 C 0.068,0.088 0.039,0.054 0,0" /></g><g
           transform="translate(349.4006,60.6047)"
           id="g176"><path
             id="path178"
             style="fill:#3f3b3c;fill-opacity:1;fill-rule:nonzero;stroke:none"
             d="m 0,0 c -0.069,-0.018 -0.163,-0.074 -0.248,-0.122 0.053,-0.005 0.114,0 0.183,0.021 C -0.048,-0.075 -0.023,-0.036 0,0" /></g><g
           transform="translate(346.3093,59.3936)"
           id="g180"><path
             id="path182"
             style="fill:#3f3b3c;fill-opacity:1;fill-rule:nonzero;stroke:none"
             d="M 0,0 C 0.244,0.312 0.599,0.498 0.441,0.081 0.732,0.229 1.496,1.285 1.833,1.948 1.722,1.815 1.621,1.692 1.351,1.608 1.266,1.399 1.311,0.994 0.985,0.795 0.703,0.758 0.945,1.006 0.994,1.234 0.757,0.794 0.361,0.815 -0.032,0.199 l 0.279,0.11 C 0.181,0.218 0.028,0.109 0,0" /></g><g
           transform="translate(348.369,61.1096)"
           id="g184"><path
             id="path186"
             style="fill:#3f3b3c;fill-opacity:1;fill-rule:nonzero;stroke:none"
             d="M 0,0 0.084,-0.007 C 0.07,0.097 0.125,0.253 0.237,0.561 0.02,0.487 -0.089,0.386 -0.178,0.288 L 0.057,0.03 Z" /></g><g
           transform="translate(348.6824,60.9023)"
           id="g188"><path
             id="path190"
             style="fill:#3f3b3c;fill-opacity:1;fill-rule:nonzero;stroke:none"
             d="m 0,0 c -0.326,-0.287 -0.561,-0.324 -0.796,-0.738 0.157,-0.1 0.335,0.184 0.545,0.247 -0.303,0.127 0.228,0.118 0.22,0.452 0.096,0.013 0.154,-0.008 0.206,-0.03 C 0.167,0.008 0.168,0.094 0.181,0.189 L 0.168,0.164 H 0.17 L 0.166,0.159 C 0.141,0.11 0.122,0.082 0.131,0.116 0.127,0.113 0.12,0.114 0.12,0.114 0.077,0.073 0.038,0.037 0.002,0.002 -0.009,0.13 0.064,0.096 0.12,0.114 L 0.166,0.159 0.168,0.164 -0.23,0.2 C -0.217,0.11 -0.146,0.063 0,0" /></g><g
           transform="translate(348.2244,58.3282)"
           id="g192"><path
             id="path194"
             style="fill:#3f3b3c;fill-opacity:1;fill-rule:nonzero;stroke:none"
             d="M 0,0 C 0.022,0.032 0.045,0.053 0.067,0.075 0.017,0.051 -0.014,0.032 0,0" /></g><g
           transform="translate(348.3372,58.588)"
           id="g196"><path
             id="path198"
             style="fill:#3f3b3c;fill-opacity:1;fill-rule:nonzero;stroke:none"
             d="m 0,0 c 0.057,0.027 0.195,0.132 0.207,0.054 -0.055,-0.13 -0.151,-0.141 -0.253,-0.239 0.11,0.05 0.322,0.109 0.39,0.342 L 0.287,0.132 C 0.32,0.314 0.606,0.794 0.662,0.821 0.405,0.528 0.226,0.315 0,0" /></g><g
           transform="translate(348.4725,59.65)"
           id="g200"><path
             id="path202"
             style="fill:#3f3b3c;fill-opacity:1;fill-rule:nonzero;stroke:none"
             d="m 0,0 -0.32,0.017 -0.17,-0.355 0.15,0.166 C -0.304,-0.33 -0.133,-0.111 0,0" /></g><g
           transform="translate(348.2872,61.5996)"
           id="g204"><path
             id="path206"
             style="fill:#3f3b3c;fill-opacity:1;fill-rule:nonzero;stroke:none"
             d="M 0,0 0.312,0.334 -0.213,-0.071 Z" /></g><g
           transform="translate(347.9659,61.7818)"
           id="g208"><path
             id="path210"
             style="fill:#3f3b3c;fill-opacity:1;fill-rule:nonzero;stroke:none"
             d="M 0,0 0.248,0.31 0.023,0.176 Z" /></g><g
           transform="translate(331.9727,54.9689)"
           id="g212"><path
             id="path214"
             style="fill:#3f3b3c;fill-opacity:1;fill-rule:nonzero;stroke:none"
             d="M 0,0 -0.014,-0.129 C 0,-0.085 0.003,-0.042 0,0" /></g><g
           transform="translate(332.4091,55.1296)"
           id="g216"><path
             id="path218"
             style="fill:#3f3b3c;fill-opacity:1;fill-rule:nonzero;stroke:none"
             d="M 0,0 -0.067,0.184 C -0.044,0.076 -0.021,0 0,0" /></g><g
           transform="translate(338.9301,62.8007)"
           id="g220"><path
             id="path222"
             style="fill:#3f3b3c;fill-opacity:1;fill-rule:nonzero;stroke:none"
             d="M 0,0 C -0.207,0.321 -0.49,0.832 -0.341,0.412 L -0.178,0.009 C -0.136,0.104 -0.071,0.075 0,0" /></g><g
           transform="translate(335.1138,58.7103)"
           id="g224"><path
             id="path226"
             style="fill:#3f3b3c;fill-opacity:1;fill-rule:nonzero;stroke:none"
             d="M 0,0 0.073,-0.113 C 0.042,0.034 0.013,0.17 -0.014,0.298 -0.01,0.205 -0.005,0.105 0,0" /></g><g
           transform="translate(335.6922,57.0094)"
           id="g228"><path
             id="path230"
             style="fill:#3f3b3c;fill-opacity:1;fill-rule:nonzero;stroke:none"
             d="M 0,0 -0.216,0.217 C -0.155,0.136 -0.084,0.063 0,0" /></g><g
           transform="translate(329.8571,53.5064)"
           id="g232"><path
             id="path234"
             style="fill:#3f3b3c;fill-opacity:1;fill-rule:nonzero;stroke:none"
             d="M 0,0 0.121,-0.432 C 0.225,-0.38 0.084,-0.2 0,0" /></g><g
           transform="translate(344.2248,63.3201)"
           id="g236"><path
             id="path238"
             style="fill:#3f3b3c;fill-opacity:1;fill-rule:nonzero;stroke:none"
             d="M 0,0 C -0.086,0.186 -0.173,0.272 -0.255,0.306 -0.144,0.037 -0.106,-0.349 0,0" /></g><g
           transform="translate(330.3078,59.2655)"
           id="g240"><path
             id="path242"
             style="fill:#3f3b3c;fill-opacity:1;fill-rule:nonzero;stroke:none"
             d="M 0,0 C -0.007,-0.089 0.013,-0.177 0.052,-0.265 0.061,-0.18 0.05,-0.094 0,0" /></g><g
           transform="translate(343.6156,63.6763)"
           id="g244"><path
             id="path246"
             style="fill:#3f3b3c;fill-opacity:1;fill-rule:nonzero;stroke:none"
             d="M 0,0 C 0.017,-0.046 0.035,-0.071 0.053,-0.11 0.15,-0.051 0.249,-0.006 0.354,-0.05 0.274,0.15 0.153,0.283 0,0" /></g><g
           transform="translate(321.5956,49.5156)"
           id="g248"><path
             id="path250"
             style="fill:#3f3b3c;fill-opacity:1;fill-rule:nonzero;stroke:none"
             d="M 0,0 C -0.016,0.013 -0.027,0.017 -0.045,0.034 -0.016,-0.017 -0.006,-0.016 0,0" /></g><g
           transform="translate(317.808,48.839)"
           id="g252"><path
             id="path254"
             style="fill:#3f3b3c;fill-opacity:1;fill-rule:nonzero;stroke:none"
             d="M 0,0 C -0.037,0.008 -0.062,0.044 -0.09,0.075 -0.104,0.042 -0.083,0.015 0,0" /></g><g
           transform="translate(346.7578,62.7763)"
           id="g256"><path
             id="path258"
             style="fill:#3f3b3c;fill-opacity:1;fill-rule:nonzero;stroke:none"
             d="M 0,0 C 0.087,-0.016 0.035,0.036 0,0" /></g><g
           transform="translate(346.2408,61.0925)"
           id="g260"><path
             id="path262"
             style="fill:#3f3b3c;fill-opacity:1;fill-rule:nonzero;stroke:none"
             d="M 0,0 C -0.038,-0.034 -0.079,-0.082 -0.131,-0.168 -0.073,-0.081 -0.031,-0.028 0,0" /></g><g
           transform="translate(342.7205,61.0222)"
           id="g264"><path
             id="path266"
             style="fill:#3f3b3c;fill-opacity:1;fill-rule:nonzero;stroke:none"
             d="M 0,0 -0.005,0.002 C 0.014,-0.084 0.01,-0.068 0,0" /></g><g
           transform="translate(346.7724,62.5407)"
           id="g268"><path
             id="path270"
             style="fill:#3f3b3c;fill-opacity:1;fill-rule:nonzero;stroke:none"
             d="M 0,0 C -0.001,0.062 -0.011,0.119 -0.03,0.166 -0.031,0.128 -0.023,0.075 0,0" /></g><g
           transform="translate(346.8569,62.7288)"
           id="g272"><path
             id="path274"
             style="fill:#3f3b3c;fill-opacity:1;fill-rule:nonzero;stroke:none"
             d="M 0,0 C 0.018,-0.031 0.031,-0.052 0.043,-0.074 0.088,-0.016 0.101,0.029 0,0" /></g><g
           transform="translate(346.6385,62.8094)"
           id="g276"><path
             id="path278"
             style="fill:#3f3b3c;fill-opacity:1;fill-rule:nonzero;stroke:none"
             d="m 0,0 c 0.047,-0.016 0.08,-0.054 0.104,-0.102 0,0.034 0.004,0.058 0.015,0.069 C 0.093,-0.028 0.057,-0.019 0,0" /></g><g
           transform="translate(325.3446,52.9561)"
           id="g280"><path
             id="path282"
             style="fill:#3f3b3c;fill-opacity:1;fill-rule:nonzero;stroke:none"
             d="M 0,0 C -0.01,0.01 -0.017,0.017 -0.031,0.03 -0.001,-0.158 0.01,-0.12 0,0" /></g><g
           transform="translate(338.8232,58.0167)"
           id="g284"><path
             id="path286"
             style="fill:#3f3b3c;fill-opacity:1;fill-rule:nonzero;stroke:none"
             d="M 0,0 C 0,0.005 0,0.016 0,0.022 L -0.014,0.034 Z" /></g><g
           transform="translate(338.7235,57.6402)"
           id="g288"><path
             id="path290"
             style="fill:#3f3b3c;fill-opacity:1;fill-rule:nonzero;stroke:none"
             d="M 0,0 C -0.089,0.541 -0.017,0.495 0.086,0.41 L -0.388,1.57 Z" /></g><g
           transform="translate(323.2346,55.5122)"
           id="g292"><path
             id="path294"
             style="fill:#3f3b3c;fill-opacity:1;fill-rule:nonzero;stroke:none"
             d="M 0,0 0.096,-0.092 C 0.079,-0.258 0.043,-0.135 0,0 m 22.684,7.003 c 0.052,0.05 0.079,0.111 0.095,0.178 C 22.711,7.078 22.652,7.097 22.601,7.159 22.57,7.034 22.566,6.939 22.684,7.003 m -0.177,0.304 -0.015,-0.02 c -0.061,0.225 -0.042,0.138 0.015,0.02 m -9.98,-4.855 c 0.025,-0.161 -0.051,-0.105 -0.17,0.045 0.026,0.052 0.077,0.052 0.17,-0.045 M 9.728,0.085 c -10e-4,-0.11 0.04,-0.432 -0.101,-0.182 -0.169,0.528 -0.03,0.3 0.101,0.182 M 7.773,-1.108 8.07,-1.401 c 0.097,-0.66 -0.112,-0.512 0.241,-0.954 -0.538,1.247 0.473,0.369 -0.057,1.615 l 0.207,-0.222 c -0.032,0.001 -0.003,-0.074 -0.035,-0.073 0.44,-0.518 -0.264,0.956 0.045,0.88 0.123,-0.06 0.257,-0.217 0.267,-0.388 l 0.045,0.386 C 8.845,-0.159 8.926,-0.381 8.864,-0.38 l 0.23,0.219 0.014,-0.038 C 9.063,0.014 9.021,0.355 9.01,0.503 9.156,0.354 9.031,0.355 9.116,0.207 L 9.139,0.575 C 9.339,0.278 9.346,-0.089 9.222,-0.089 9.896,-1.274 9.214,0.28 9.829,-0.321 L 9.754,-0.539 c 0.392,-0.672 0.394,-0.368 0.74,-0.745 -0.134,0.217 -0.791,0.982 -0.758,1.362 0.086,-0.075 0.166,-0.094 0.149,0.195 0.188,-0.445 0.228,-0.3 0.326,-0.229 L 10.45,-0.55 c 0.045,0.219 -0.089,0.516 -0.13,0.811 0.156,-0.003 0.371,-0.45 0.56,-0.824 0.247,-0.007 -0.446,0.675 -0.244,0.89 0.267,-0.153 0.291,0.135 0.359,0.575 C 11.2,0.747 11.119,0.53 11.232,0.378 l -0.081,0.517 c 0.031,-0.001 0.08,-0.15 0.105,-0.225 0.019,0.221 -0.23,0.597 -0.148,0.816 -0.22,0.671 0.677,-0.838 0.562,-0.022 0.111,-0.152 0.122,-0.374 0.226,-0.599 0.054,0.587 0.072,0.437 0.021,1.175 L 12.242,1.714 C 11.941,2.114 11.9,2.707 11.879,3.198 11.75,3.397 11.638,3.572 11.577,3.652 l 0.111,0.41 C 11.754,3.974 11.808,3.76 11.865,3.496 11.861,3.551 11.857,3.606 11.853,3.655 12.02,3.466 12.108,3.104 12.176,2.748 12.104,2.856 12.028,2.971 11.952,3.085 12.034,2.7 12.135,2.278 12.28,1.933 12.269,2.007 12.275,2.077 12.293,2.123 12.316,2.019 12.341,1.927 12.37,1.87 12.402,1.81 12.375,1.951 12.354,2.118 L 12.66,1.471 12.572,1.741 13.027,1.437 C 12.985,2.19 12.805,3.25 13.05,3.652 13.145,3.13 13.326,2.843 13.535,2.26 c -0.32,0.581 -0.168,-0.357 -0.39,-0.297 0.116,-0.03 0.199,-0.315 0.211,-0.42 l 0.107,0.674 c 0.168,-0.479 0.198,-0.333 0.352,-0.5 -0.407,0.918 0.005,0.712 0.029,1.048 0.123,-0.314 0.208,-0.648 0.025,-0.628 0.428,-0.647 -0.177,1.187 0.21,0.646 -0.035,-0.022 -0.073,0.019 -0.03,-0.147 -0.012,0.314 0.287,0.171 0.333,-0.124 L 14.347,2.491 c 0.292,-0.019 0.775,0.262 0.536,1.081 0.039,-0.103 0.302,-0.981 0.343,-1.148 l -0.47,2.865 C 14.951,4.584 15.666,2.99 15.588,2.527 15.682,2.449 15.796,2.36 15.84,2.648 15.766,2.732 15.398,3.612 15.433,3.695 15.85,2.979 15.681,3.322 16.094,2.728 15.982,2.856 15.687,3.964 15.798,3.963 15.837,3.795 16.165,2.893 16.167,2.768 l -0.11,1.148 c 0.002,-0.213 0.289,-0.909 0.444,-1.193 -0.095,0.201 0.217,0.05 0.247,0.177 L 16.563,3.114 C 16.892,3.043 16.347,4.708 16.645,4.743 16.682,4.511 17,3.355 17.183,3.266 17.071,3.836 16.62,5.996 16.758,6.502 l 0.146,-0.299 0.098,0.42 c 0.103,-0.872 0.317,-2.714 0.362,-3.445 0.18,-0.217 0.148,-0.36 0.287,-0.286 0.143,-0.278 0.062,-0.471 0.022,-0.503 l 0.394,-0.086 c -0.21,0.64 0.052,0.72 -0.115,1.254 L 17.791,2.781 c -0.218,0.635 -0.342,1.893 -0.051,1.851 0.134,-0.24 0.276,-1.165 0.345,-1.379 -0.035,0.232 0.1,0.486 0.162,0.332 L 18.244,3.213 C 18.425,3 18.229,4.13 18.525,3.541 c 0.063,-0.03 0.323,-0.816 0.247,-0.426 -0.222,0.739 -0.767,3.047 -0.807,3.629 0.042,-0.043 0.516,-0.646 0.64,-1.013 0.185,-0.58 0.086,-1.438 0.252,-1.935 -0.028,0.182 -0.019,0.412 -0.01,0.488 0.076,-0.148 0.065,-0.566 0.16,-0.468 -0.073,0.678 0.231,-0.029 -0.023,0.578 0.094,0.208 0.138,-0.125 0.262,-0.085 -0.084,0.436 0.027,1.506 0.193,1.704 -0.005,-0.174 0.031,-0.399 0.047,-0.503 0.29,-0.081 0.417,-0.373 0.657,-0.42 0.004,-0.167 0.084,-0.382 -0.005,-0.665 0.047,0.115 0.113,0.338 0.188,0.344 0.026,-0.6 -0.165,-0.068 -0.183,-0.782 0.068,0.386 0.256,0.525 0.411,0.732 0.105,0.613 -0.226,0.162 -0.353,-0.069 0.114,0.827 0.472,1.698 0.909,1.977 C 21.43,6.759 21.083,6.07 21.16,6.174 21.566,5.918 22.035,7.44 22.252,6.717 22.207,6.159 21.849,5.726 21.737,5.354 21.488,5.23 21.586,5.776 21.447,5.805 L 21.515,5.508 C 21.395,5.362 21.24,5.276 21.224,5.447 21.178,4.953 21.872,5.109 21.953,4.556 c 0.13,0.138 0.309,0.258 0.369,0.469 l -0.13,-0.021 c 0.106,0.431 0.466,0.44 0.433,0.682 0.277,0.199 0.679,0.513 0.755,0.185 L 23.093,5.328 c 0.093,0.153 0.067,0.385 -0.083,0.256 0.227,0.179 -0.152,-0.867 0.357,-0.251 l 0.101,0.442 c 0.299,0.176 0.84,0.589 0.91,0.306 C 24.646,6.632 24.3,6.051 24.574,6.723 24.189,5.919 24.122,7.077 23.797,6.178 24.101,6.956 23.748,6.615 23.91,7.333 23.815,7.154 23.785,6.958 23.665,7.143 23.629,7.096 23.574,7.041 23.542,7.009 L 23.538,7.029 23.535,7.002 C 23.514,6.98 23.51,6.975 23.535,6.993 23.532,6.893 23.511,6.782 23.468,6.676 23.163,6.323 22.918,6.467 22.721,6.292 22.668,6.424 22.865,6.48 22.908,6.698 L 22.619,6.439 c 0.186,0.41 0.04,0.808 0.401,0.928 L 22.799,7.493 C 22.764,7.785 22.586,7.956 22.397,7.826 22.309,7.963 21.94,7.465 22.155,7.761 c 0,0 -0.118,-0.033 -0.236,-0.065 C 21.8,7.657 21.681,7.618 21.681,7.618 l 0.028,0.108 C 21.307,7.904 20.782,7.194 20.434,8.054 20.282,7.966 20.133,7.828 19.91,7.968 l -0.028,0.39 C 19.701,8.232 19.316,8.766 19.243,8.352 18.979,9.396 18.305,8.511 18.008,8.636 L 18.083,8.134 C 17.878,8.129 17.72,7.949 17.542,7.7 L 17.657,7.266 C 17.562,6.867 17.113,7.462 16.847,7.337 16.818,7.507 16.9,7.484 16.978,7.398 16.355,8.275 16.519,6.493 16.04,7.114 16.024,6.937 15.96,6.975 15.879,7.067 15.885,7.07 15.888,7.08 15.888,7.095 15.88,7.098 15.87,7.095 15.86,7.091 15.807,7.155 15.746,7.228 15.695,7.288 15.756,7.194 15.81,7.117 15.846,7.085 15.798,7.06 15.739,6.981 15.698,6.85 l -0.18,0.447 C 15.514,7.289 15.508,7.289 15.505,7.279 15.376,7.423 15.516,7.042 15.667,6.711 15.654,6.623 15.649,6.521 15.658,6.402 15.357,7.121 15.545,6.089 15.204,6.85 15.28,6.449 14.923,6.437 15.154,5.618 15.116,5.722 15.077,5.765 15.115,5.785 15.002,5.849 14.887,5.915 14.89,5.662 L 14.659,6.23 14.744,5.388 C 14.514,5.703 14.398,5.892 14.355,6.376 14.326,5.599 14.229,6.044 14.241,5.288 L 14.122,5.666 C 14.047,5.624 14.094,5.079 13.938,5.371 13.509,6.023 13.025,5.158 12.329,5.648 12.819,4.586 11.936,6.061 12.23,5.207 12.108,5.455 11.989,5.578 11.981,5.83 11.841,5.492 11.476,6.109 11.582,5.334 11.458,5.583 11.49,5.732 11.409,5.876 11.411,5.813 11.419,5.623 11.336,5.768 11.255,5.912 11.289,5.998 11.284,6.124 11.06,5.989 11.338,5.186 11.603,4.434 11.35,4.741 11.309,4.668 11.41,4.147 11.275,4.375 11.107,4.603 11.221,4.747 11.125,4.751 10.577,4.911 10.8,4.312 10.716,4.453 10.668,4.311 10.674,4.234 10.476,4.196 10.438,4.243 10.28,4.115 L 10.369,4.038 C 10.581,3.292 10.282,3.818 10.171,3.674 L 10.146,3.749 C 9.606,4.132 10.102,3.445 9.536,3.902 L 9.734,3.465 C 10.091,2.497 9.214,3.913 9.173,3.467 L 9.346,3.242 C 9.378,2.873 8.522,4.418 8.365,4.493 8.308,4.566 8.346,4.641 8.353,4.715 7.843,5.162 8.558,4.12 8.41,3.9 8.241,4.197 8.127,4.716 7.963,4.716 7.787,4.939 7.99,3.536 7.549,4.054 7.692,3.832 7.835,3.609 7.818,3.388 7.712,3.24 7.037,4.125 7.233,3.312 7.186,3.37 7.152,3.429 7.125,3.488 7.099,3.245 6.908,3.009 7.022,2.571 6.248,4.044 6.669,1.534 6.048,2.929 L 5.745,2.701 5.689,2.847 C 5.431,2.841 5.507,2.473 5.584,2.106 5.491,2.178 5.468,2.324 5.439,2.398 4.995,2.536 4.989,2.46 5.051,1.647 L 4.814,2.083 C 4.867,1.79 4.029,2.572 3.97,1.905 3.949,1.957 3.914,2.047 3.908,2.121 3.816,1.438 2.48,2.954 3.148,1.273 L 3.12,0.763 C 3.472,0.78 3.424,0.04 3.676,-0.17 3.61,-0.32 3.141,0.174 3.239,0.325 L 3.301,0.255 C 2.934,1.123 2.792,0.376 2.513,0.953 1.966,0.619 1.169,0.805 0.617,0.555 L 1.018,-0.06 0.814,-0.12 C 0.686,0.005 0.482,0.351 0.628,0.395 0.365,0.724 0.569,-0.03 0.64,-0.173 0.243,-0.048 0.341,0.635 0.254,0.608 L 0.171,0.502 0.236,0.44 C 0.288,0.129 0.43,-0.154 0.254,-0.206 0.085,-0.131 -0.01,0.164 -0.063,0.168 -0.087,0.213 -0.112,0.228 -0.134,0.154 L -0.398,0.085 -0.03,-0.374 c 0.032,-0.305 -0.232,-0.091 0.186,-0.608 -0.637,0.801 -1.032,-0.155 -1.279,0.066 0.062,-0.447 -0.083,-0.516 -0.281,-0.572 0.102,-0.08 0.446,-0.631 0.259,-0.646 -0.604,1.197 -0.559,0.35 -1.158,1.118 0.426,-0.493 -0.348,-0.381 0.274,-1.071 -0.178,0.023 -0.257,0.431 -0.51,0.65 -0.039,-0.617 -0.824,-0.09 -1.103,-0.458 0.084,-0.155 0.283,-0.35 0.338,-0.621 l -0.643,0.641 c -0.028,-0.117 0.455,-0.911 0.01,-0.465 0.094,-0.116 0.237,-0.291 0.218,-0.368 -0.766,0.205 -0.991,-0.519 -1.51,-0.75 L -6.501,-4.026 -5.7,-5.65 c 0.126,-0.254 0.13,-0.59 -0.166,-1.123 0.221,0.283 0.291,0.239 0.349,0.175 0.037,0.092 0.362,0.241 0.554,0.382 l -0.358,-0.656 c 0.585,0.315 0.244,-0.284 0.79,0.037 l -0.156,0.028 c 0.702,0.293 1.266,1.092 2.075,1.606 -0.797,-0.335 0.805,1.057 -0.354,0.605 0.13,0.158 0.285,0.129 0.452,0.279 -0.379,-0.171 -0.496,-0.151 -0.427,0.078 l 0.094,0.042 c -0.111,0.104 -0.156,0.217 -0.167,0.342 l -0.504,-2.343 c 0.239,0.014 0.518,-0.089 0.872,-0.079 l -0.278,0.385 c 0.12,-10e-4 0.216,-0.116 0.318,-0.193 -0.276,0.674 -0.263,-0.114 -0.588,0.616 0.619,-0.751 0.62,0.364 1.264,-0.527 0.136,0.074 -0.323,0.446 -0.185,0.52 l 0.188,-0.233 -0.163,0.348 c 0.12,-0.002 0.355,-0.294 0.487,-0.508 -0.037,0.013 -0.025,-0.096 -0.036,-0.128 0.292,-0.232 0.258,0.292 0.355,0.217 l -0.221,0.081 c 0.223,0.455 0.862,0.383 0.918,1.106 l -0.139,0.178 c 0.068,0.515 0.341,-0.088 0.545,0.249 l 0.016,-0.052 c -0.05,0.228 -0.025,0.371 0.07,0.396 0.053,-0.271 0.391,-0.362 0.434,-0.671 0.079,0.554 -0.024,0.386 -0.232,1.221 l 0.226,-0.299 c -0.095,0.33 -0.175,0.488 -0.07,0.656 0.03,-0.347 0.37,-0.441 0.435,-0.886 0.706,-0.537 0.077,0.977 0.79,0.016 -0.345,0.982 -0.547,0.349 -0.57,0.587 -0.23,0.257 -0.247,0.74 -0.097,0.705 0.113,0.037 0.799,-1.059 1.045,-0.907 -0.028,-0.009 0.007,-0.079 -0.021,-0.088 0.219,-0.18 0.021,0.412 0.338,0.099 -0.225,0.583 0.169,0.049 -0.182,0.759 l -0.15,-0.287 c 0.035,0.253 -0.272,1.139 0.16,0.86 0.057,-0.151 0.089,-0.371 0.099,-0.499 0.173,-0.172 0.052,0.203 0.23,0.026 0.35,-0.711 -0.206,-0.305 -0.065,-0.914 0.225,-0.259 0,0.65 0.33,-0.146 -0.406,1.019 0.314,0.011 0.101,0.841 l 0.208,-0.427 c -0.007,0.081 -0.054,0.309 0.003,0.324 l 0.192,-0.593 c -0.101,0.538 0.482,-0.269 0.485,0.054 -0.275,-0.157 -0.326,0.475 -0.604,0.722 0.06,0.744 0.769,-1.001 1.053,-0.6 -0.022,-0.086 -0.327,0.153 -0.345,0.391 0.119,-0.049 0.3,-0.161 0.458,-0.36 0.212,0.219 -0.261,0.415 -0.282,0.731 0.349,-0.471 0.02,0.275 0.052,0.499 L 4.143,-2.439 C 4.578,-2.568 3.772,-1.5 4.209,-1.702 l 0.184,-0.655 0.063,0.224 0.215,-0.506 C 4.642,-2.2 4.736,-2.271 4.953,-2.336 4.768,-2.048 4.586,-1.541 4.712,-1.462 4.928,-1.675 4.863,-1.898 5.02,-1.744 5.11,-2.036 5.23,-2.399 4.954,-2.04 c 0.052,-0.149 0.1,-0.289 0.151,-0.436 0.242,-0.249 0.275,0.051 0.341,0.089 -0.034,0.003 -0.076,0.011 -0.122,0.065 l -0.022,0.735 c 0.122,-0.142 0.151,-0.29 0.18,-0.435 0.032,0.074 -0.026,0.292 0.037,0.368 0.149,-0.364 0.329,-0.725 0.296,-0.946 l 0.069,0.514 c 0.091,-0.145 0.335,-0.36 0.363,-0.506 0.241,-0.141 0.024,0.853 0.345,0.668 -0.023,0.073 -0.034,0.149 -0.017,0.219 0.217,0.004 0.575,-0.357 0.564,0.227 l 0.414,-0.584 c 0.1,0.221 -0.533,0.73 -0.365,1.098 0.105,0.294 0.323,-0.512 0.473,-0.659 -0.05,0.367 -0.175,1.102 0.242,0.663 -0.006,-0.148 -0.096,-0.075 -0.13,-0.148" /></g><g
           transform="translate(335.6263,57.2068)"
           id="g296"><path
             id="path298"
             style="fill:#3f3b3c;fill-opacity:1;fill-rule:nonzero;stroke:none"
             d="M 0,0 C -0.041,0.072 -0.076,0.154 -0.111,0.238 -0.099,0.156 -0.066,0.069 0,0" /></g><g
           transform="translate(329.8349,53.5862)"
           id="g300"><path
             id="path302"
             style="fill:#3f3b3c;fill-opacity:1;fill-rule:nonzero;stroke:none"
             d="M 0,0 -0.009,0.002 0.022,-0.08 Z" /></g><g
           transform="translate(342.1912,59.072)"
           id="g304"><path
             id="path306"
             style="fill:#3f3b3c;fill-opacity:1;fill-rule:nonzero;stroke:none"
             d="M 0,0 C -0.041,0.064 -0.072,0.149 -0.1,0.237 -0.082,0.12 -0.051,0.024 0,0" /></g><g
           transform="translate(347.6223,62.5153)"
           id="g308"><path
             id="path310"
             style="fill:#3f3b3c;fill-opacity:1;fill-rule:nonzero;stroke:none"
             d="m 0,0 -0.222,-0.009 c 0.089,-0.025 0.06,-0.13 0.053,-0.219 C -0.111,-0.131 -0.051,0.025 0,0" /></g><g
           transform="translate(346.9217,59.3215)"
           id="g312"><path
             id="path314"
             style="fill:#3f3b3c;fill-opacity:1;fill-rule:nonzero;stroke:none"
             d="M 0,0 C 0.053,0.032 0.035,-0.023 0.088,0.01 L 0.23,0.185 C 0.157,0.231 -0.006,0.127 0,0" /></g><g
           transform="translate(346.8666,61.0901)"
           id="g316"><path
             id="path318"
             style="fill:#3f3b3c;fill-opacity:1;fill-rule:nonzero;stroke:none"
             d="M 0,0 C -0.216,-0.344 -0.063,-0.282 0.068,-0.282 0.062,-0.279 0.055,-0.278 0.052,-0.271 0.405,0.175 0.199,0.09 0,0" /></g><g
           transform="translate(346.9626,60.8057)"
           id="g320"><path
             id="path322"
             style="fill:#3f3b3c;fill-opacity:1;fill-rule:nonzero;stroke:none"
             d="M 0,0 C 0.038,-0.003 0.072,-0.014 0.087,-0.048 0.23,0.129 0.081,0.014 0,0" /></g><g
           transform="translate(346.3531,62.6047)"
           id="g324"><path
             id="path326"
             style="fill:#3f3b3c;fill-opacity:1;fill-rule:nonzero;stroke:none"
             d="M 0,0 C 0.007,-0.12 0.268,0.447 0.225,0.284 0.514,0.717 -0.421,-0.097 0,0" /></g><g
           transform="translate(346.1844,59.9364)"
           id="g328"><path
             id="path330"
             style="fill:#3f3b3c;fill-opacity:1;fill-rule:nonzero;stroke:none"
             d="M 0,0 0.253,0.434 -0.017,0.13 Z" /></g><g
           transform="translate(345.7346,60.6494)"
           id="g332"><path
             id="path334"
             style="fill:#3f3b3c;fill-opacity:1;fill-rule:nonzero;stroke:none"
             d="m 0,0 0.066,-0.2 c 0.04,0.074 0.082,0.107 0.122,0.127 C 0.113,-0.01 0.069,0.132 0,0" /></g><g
           transform="translate(345.9225,60.5761)"
           id="g336"><path
             id="path338"
             style="fill:#3f3b3c;fill-opacity:1;fill-rule:nonzero;stroke:none"
             d="M 0,0 C 0.039,-0.034 0.085,-0.049 0.152,0.006 0.126,0.016 0.066,0.032 0,0" /></g><g
           transform="translate(345.9342,59.9269)"
           id="g340"><path
             id="path342"
             style="fill:#3f3b3c;fill-opacity:1;fill-rule:nonzero;stroke:none"
             d="M 0,0 0.021,0.113 -0.051,0.197 Z" /></g><g
           transform="translate(344.1784,61.373)"
           id="g344"><path
             id="path346"
             style="fill:#3f3b3c;fill-opacity:1;fill-rule:nonzero;stroke:none"
             d="M 0,0 -0.202,-0.095 C -0.255,-0.259 -0.234,-0.373 -0.159,-0.322 -0.093,-0.216 -0.015,-0.168 0,0" /></g><g
           transform="translate(344.2433,59.9252)"
           id="g348"><path
             id="path350"
             style="fill:#3f3b3c;fill-opacity:1;fill-rule:nonzero;stroke:none"
             d="m 0,0 c -0.001,0.112 0.032,0.219 0.063,0.383 l -0.2,-0.588 z" /></g><g
           transform="translate(343.8237,59.8976)"
           id="g352"><path
             id="path354"
             style="fill:#3f3b3c;fill-opacity:1;fill-rule:nonzero;stroke:none"
             d="M 0,0 C -0.06,-0.163 -0.289,-0.433 -0.133,-0.436 -0.083,-0.273 0.08,-0.168 0,0" /></g><g
           transform="translate(341.6912,60.7141)"
           id="g356"><path
             id="path358"
             style="fill:#3f3b3c;fill-opacity:1;fill-rule:nonzero;stroke:none"
             d="m 0,0 0.038,0.015 -0.191,1 z" /></g><g
           transform="translate(340.3888,57.815)"
           id="g360"><path
             id="path362"
             style="fill:#3f3b3c;fill-opacity:1;fill-rule:nonzero;stroke:none"
             d="M 0,0 C 0.254,-0.174 -0.151,0.612 0.105,0.375 0.073,0.618 -0.104,0.568 -0.125,0.78 -0.156,0.503 -0.257,0.621 0,0" /></g><g
           transform="translate(340.2637,58.5952)"
           id="g364"><path
             id="path366"
             style="fill:#3f3b3c;fill-opacity:1;fill-rule:nonzero;stroke:none"
             d="M 0,0 C 0.005,0.044 0.009,0.096 0.008,0.166 -0.004,0.095 -0.004,0.043 0,0" /></g><g
           transform="translate(317.6067,48.1557)"
           id="g368"><path
             id="path370"
             style="fill:#3f3b3c;fill-opacity:1;fill-rule:nonzero;stroke:none"
             d="m 0,0 -0.107,-0.222 0.24,0.257 z" /></g><g
           transform="translate(318.3676,48.3766)"
           id="g372"><path
             id="path374"
             style="fill:#3f3b3c;fill-opacity:1;fill-rule:nonzero;stroke:none"
             d="m 0,0 -0.523,-0.385 0.53,0.264 C -0.033,-0.113 -0.11,-0.099 0,0" /></g><g
           transform="translate(333.7778,54.5201)"
           id="g376"><path
             id="path378"
             style="fill:#3f3b3c;fill-opacity:1;fill-rule:nonzero;stroke:none"
             d="M 0,0 -0.052,0.148 C -0.134,0.297 -0.165,0.297 -0.227,0.3 Z" /></g><g
           transform="translate(332.0874,54.3259)"
           id="g380"><path
             id="path382"
             style="fill:#3f3b3c;fill-opacity:1;fill-rule:nonzero;stroke:none"
             d="M 0,0 0.031,-0.001 -0.253,0.516 Z" /></g><g
           transform="translate(331.1455,53.0847)"
           id="g384"><path
             id="path386"
             style="fill:#3f3b3c;fill-opacity:1;fill-rule:nonzero;stroke:none"
             d="M 0,0 C 0.061,0.001 0.066,0.147 0.127,0.147 0.061,0.001 -0.318,0.66 0,0" /></g><g
           transform="translate(337.5099,122.0619)"
           id="g388"><path
             id="path390"
             style="fill:#231f20;fill-opacity:1;fill-rule:nonzero;stroke:none"
             d="M 0,0 C 2.697,0 2.582,8.935 -0.219,8.935 -2.916,8.935 -2.801,0 0,0" /></g><g
           transform="translate(305.8621,143.8371)"
           id="g392"><path
             id="path394"
             style="fill:#231f20;fill-opacity:1;fill-rule:nonzero;stroke:none"
             d="m 0,0 c 2.585,2.496 4.142,6.084 6.262,8.991 2.79,3.824 5.87,7.471 9.249,10.788 2.791,2.74 6.183,6.439 9.837,7.999 8.109,3.46 6.136,-13.285 5.798,-17.232 -1.796,-21.03 -4.849,-42.018 -7.317,-62.979 -0.316,-2.691 2.124,-5.639 2.591,-1.549 1.551,13.582 3.101,27.165 4.652,40.747 1.431,12.539 4.116,25.815 2.48,38.455 -0.373,2.882 -1.172,6.845 -4.217,8.097 C 25.106,35.056 20.467,29.806 17.784,27.314 10.444,20.499 2.223,11.427 -0.578,1.593 -0.644,1.362 -0.487,-0.47 0,0" /></g><g
           transform="translate(335.8489,125.9607)"
           id="g396"><path
             id="path398"
             style="fill:#231f20;fill-opacity:1;fill-rule:nonzero;stroke:none"
             d="m 0,0 c 0.244,-0.446 0.488,-0.892 0.732,-1.338 0.192,-0.351 0.472,-0.851 0.948,-0.856 3.676,-0.041 7.355,-0.11 11.032,-0.08 2.428,0.02 4.825,0.134 6.126,2.444 0.733,1.3 0.523,8.373 -1.69,6.004 C 15.543,4.456 12.754,4.694 10.598,4.536 8.222,4.363 5.849,4.163 3.475,3.966 1.503,3.803 0.447,3.767 -0.037,1.502 -0.139,1.023 -0.254,0.465 0,0" /></g><g
           transform="translate(357.4294,188.0336)"
           id="g400"><path
             id="path402"
             style="fill:#231f20;fill-opacity:1;fill-rule:nonzero;stroke:none"
             d="m 0,0 c -3.038,-28.441 -4.597,-57.105 -6.979,-85.611 -0.049,-0.577 0.58,-4.388 1.651,-2.749 0.572,0.875 1.143,1.749 1.714,2.623 0.805,1.233 -0.233,5.947 -1.222,4.343 -0.562,-0.91 -1.123,-1.819 -1.684,-2.729 l 1.651,-2.749 c 1.902,28.734 4.619,57.498 5.884,86.265 C 1.06,0.41 0.175,1.636 0,0" /></g><g
           transform="translate(370.1467,126.483)"
           id="g404"><path
             id="path406"
             style="fill:#231f20;fill-opacity:1;fill-rule:nonzero;stroke:none"
             d="M 0,0 C 6.064,1.289 13.685,7.995 11.451,15.03 8.486,24.363 -2.915,10.567 -5.183,7.329 c -4.091,-5.842 -7.909,-14.655 -4.089,-21.62 4.798,-8.746 20.804,-4.535 28.272,-2.652 2.086,0.526 1.419,6.734 -0.155,6.311 -5.767,-1.55 -11.713,-2.555 -17.701,-2.54 -2.579,0.006 -5.344,0.121 -7.431,1.8 -3.558,2.861 -1.3,7.729 0.411,10.908 C -3.361,4.209 0.444,9.582 5.06,12.38 7.199,13.677 8.261,14.74 9.155,11.695 9.864,9.28 9.273,8.326 7.699,6.411 5.699,3.979 2.97,2.508 -0.043,1.749 -0.6,1.609 -0.472,-0.1 0,0" /></g><g
           transform="translate(395.8252,143.2551)"
           id="g408"><path
             id="path410"
             style="fill:#231f20;fill-opacity:1;fill-rule:nonzero;stroke:none"
             d="m 0,0 c -1.289,-11.81 -1.212,-23.762 -1.421,-35.624 0.657,0.016 1.314,0.032 1.972,0.048 -0.546,10.416 -1.246,20.71 2.37,30.753 4.117,11.433 15.268,8.09 23.48,3.391 1.717,-0.982 2.208,5.091 0.583,6.103 -9.433,5.871 -21.436,8.118 -26.03,-4.577 -4.012,-11.085 -5.399,-25.403 -2.213,-36.855 0.644,-2.315 1.869,-0.146 1.81,1.185 -0.523,11.777 0.183,23.504 0.529,35.27 C 1.112,0.796 0.158,1.445 0,0" /></g></g></g></g></svg>